<svg xmlns="http://www.w3.org/2000/svg" viewBox="0 0 32 32"><g fill="#FFF"><path d="M28.6 7.8h.8c.5 0 .9-.5.8-1 0-.5-.5-.9-1-.8-3.5.3-6.8-1.9-7.8-5.3-.1-.5-.6-.7-1.1-.6s-.7.6-.6 1.1c1.2 3.9 4.9 6.6 8.9 6.6z"/><path d="M30 11.1c-.3-.6-.9-1-1.6-1-.9 0-1.9 0-2.8-.2-4-.8-7-3.6-8.4-7.1-.3-.6-.9-1.1-1.6-1C8.3 1.9 1.8 7.4.9 15.1.1 22.2 4.5 29 11.3 31.2 20 34.1 29 28.7 30.8 19.9c.7-3.1.3-6.1-.8-8.8zm-11.6 1.1c.1-.5.6-.8 1.1-.7l3.7.8c.5.1.8.6.7 1.1s-.6.8-1.1.7l-3.7-.8c-.4-.1-.8-.6-.7-1.1zM10.1 11c.2-1.1 1.4-1.9 2.5-1.6 1.1.2 1.9 1.4 1.6 2.5-.2 1.1-1.4 1.9-2.5 1.6-1-.2-1.8-1.3-1.6-2.5zm14.6 10.6C22.8 26 17.8 28.5 13 27c-3.6-1.2-6.2-4.5-6.5-8.2-.1-1 .8-1.7 1.7-1.6l15.4 2.5c.9 0 1.4 1 1.1 1.9z"/><path d="M17.1 22.8c-1.9-.4-3.7.3-4.7 1.7-.2.3-.1.7.2.9.6.3 1.2.5 1.9.7 1.8.4 3.7.1 5.1-.7.3-.2.4-.6.2-.9-.7-.9-1.6-1.5-2.7-1.7z"/></g></svg>